# Blender v2.79 (sub 0) OBJ File: 'Fish2.blend'
# www.blender.org
mtllib Fish2.mtl
o Fish2_Fish
v 0.032501 -0.237935 0.387490
v 0.034938 0.345813 0.337037
v 0.039661 -0.346991 -0.544079
v 0.056989 0.468082 -0.574873
v 0.069463 0.059972 -0.564171
v 0.073923 0.541946 -0.179166
v 0.081441 -0.392333 -0.135266
v 0.082542 0.035753 -0.141729
v -0.010137 0.201819 -0.853963
v -0.005256 0.048933 -0.864634
v -0.015775 -0.222446 -0.840942
v 0.052439 0.499628 0.096669
v 0.045985 -0.353620 0.108999
v 0.070673 0.005530 0.103428
v -0.047725 0.111722 -0.957549
v -0.034949 0.048204 -0.971628
v -0.049305 -0.064498 -0.947467
v -0.173946 0.170480 -1.181617
v -0.195270 -0.020488 -1.232689
v -0.148629 -0.179669 -1.137380
v -0.093673 -0.145406 -1.047814
v -0.116796 0.013882 -1.106060
v -0.110430 0.131586 -1.079624
v -0.183107 -0.123706 -1.196450
v -0.197034 0.088735 -1.221552
v 0.068470 0.003693 0.148925
v 0.054022 0.227688 0.215816
v 0.059420 -0.090151 0.166048
v 0.045912 -0.352987 0.110521
v 0.076160 -0.004353 0.391261
v 0.049032 -0.251169 0.417331
v 0.051526 0.353449 0.365706
v 0.044395 0.195904 0.509945
v 0.054049 -0.038171 0.552902
v 0.039060 -0.053421 0.620191
v 0.037090 0.006623 0.660865
v 0.040434 -0.097237 0.591825
v 0.040454 0.049037 0.591375
v 0.037214 -0.028010 0.658317
v 0.036638 -0.067579 0.670215
v 0.036693 -0.038405 0.669066
v 0.086934 0.004936 0.168737
v 0.071695 0.242149 0.238232
v 0.077360 -0.094478 0.186628
v 0.056728 -0.253696 0.020983
v 0.067522 -0.245037 -0.040080
v 0.065711 -0.117965 -0.008762
v 0.062317 -0.155458 0.038193
v 0.102424 -0.238767 -0.071969
v 0.097002 -0.243108 -0.020096
v 0.102902 -0.132290 0.012601
v 0.109399 -0.055647 -0.079546
v 0.142588 -0.056784 -0.074591
v 0.135029 -0.240034 -0.066785
v 0.158010 -0.029831 -0.160071
v 0.149229 -0.243108 -0.156721
v 0.125162 -0.028580 -0.165272
v 0.116636 -0.241839 -0.161911
v 0.171597 -0.031728 -0.245499
v 0.160101 -0.219296 -0.219178
v 0.139003 -0.030459 -0.250688
v 0.127507 -0.218026 -0.224367
v 0.041096 0.551943 -0.179558
v -0.030745 0.212772 -0.851342
v 0.023108 0.479665 -0.571507
v 0.015796 0.510633 0.095125
v 0.032011 0.636678 -0.528663
v 0.044365 0.628962 -0.258979
v -0.034925 0.311380 -0.926962
v 0.015966 0.546609 -0.646363
v 0.003850 0.610763 -0.756530
v -0.031954 0.436742 -0.971557
v -0.011137 0.552414 -0.845402
v -0.045491 0.481915 -1.075134
v -0.033787 0.578278 -1.006559
v -0.059845 0.510358 -1.189205
v -0.057300 0.558999 -1.177725
v -0.077704 0.492148 -1.323414
v 0.006940 -0.359527 -0.538547
v -0.035394 -0.235751 -0.837270
v 0.050078 -0.403823 -0.132934
v 0.015489 -0.517444 -0.467826
v -0.036001 -0.344449 -0.819859
v -0.005256 -0.426272 -0.609126
v -0.013291 -0.554414 -0.644587
v -0.047224 -0.442844 -0.879963
v -0.026026 -0.491054 -0.735741
v -0.064410 -0.469534 -0.988260
v -0.057593 -0.555434 -0.932647
v -0.082566 -0.481460 -1.104797
v -0.082599 -0.522504 -1.099630
v -0.102059 -0.453106 -1.235322
v 0.060932 -0.364448 0.040718
v 0.032419 -0.496433 0.037941
v 0.033298 -0.431249 0.004796
v 0.038023 -0.562098 -0.050696
v 0.039110 -0.462802 -0.100882
v 0.043167 -0.520843 -0.144322
v 0.043603 -0.580775 -0.189218
v 0.021489 -0.372118 0.107950
v 0.028988 -0.385595 0.038103
v -0.069780 -0.237936 0.382538
v -0.067343 0.345812 0.332085
v -0.061495 -0.344952 -0.528535
v -0.044430 0.469685 -0.563716
v -0.017104 0.351239 0.353186
v -0.020013 -0.247237 0.413378
v -0.079939 0.062984 -0.541205
v -0.028065 0.542497 -0.178573
v -0.019020 -0.391185 -0.128636
v 0.032252 -0.414089 -0.131274
v -0.068467 0.035752 -0.149040
v -0.085387 0.203336 -0.842357
v -0.099371 0.050830 -0.850166
v -0.090774 -0.220932 -0.828775
v -0.049782 0.499740 0.092857
v -0.000127 0.521905 0.093972
v -0.001686 -0.377157 0.107257
v -0.055810 -0.353620 0.104075
v -0.080336 0.005529 0.096116
v -0.064776 0.140272 -0.953234
v -0.082677 0.112436 -0.948188
v -0.101961 0.049586 -0.947624
v -0.085114 -0.063772 -0.940149
v -0.067378 -0.094987 -0.941888
v -0.193993 0.193735 -1.168584
v -0.215973 0.171371 -1.155735
v -0.265559 -0.018993 -1.187777
v -0.192622 -0.178739 -1.111472
v -0.169993 -0.200431 -1.122588
v -0.235816 -0.018040 -1.218742
v -0.128736 0.156289 -1.069069
v -0.113500 -0.169303 -1.035780
v -0.132233 -0.144597 -1.027994
v -0.182588 0.015281 -1.064022
v -0.147568 0.132369 -1.058593
v -0.238748 -0.122524 -1.161317
v -0.221798 -0.129753 -1.194519
v -0.229031 0.086154 -1.211591
v -0.251419 0.089891 -1.186802
v -0.082539 0.003691 0.141614
v -0.074625 0.227687 0.209588
v -0.075184 -0.090153 0.159531
v 0.012056 -0.561805 -0.051320
v -0.056054 -0.352988 0.105587
v -0.113604 -0.004355 0.382073
v -0.089116 -0.251170 0.410643
v -0.021472 -0.261042 0.443531
v -0.086623 0.353447 0.359018
v -0.018496 0.358872 0.381929
v -0.024472 0.226686 0.505395
v -0.093457 0.195902 0.503271
v -0.107210 -0.038173 0.545095
v -0.098792 -0.053423 0.613516
v -0.100762 0.006622 0.654191
v -0.028548 -0.126786 0.589651
v -0.097418 -0.097238 0.585150
v -0.097398 0.049036 0.584701
v -0.028413 0.079820 0.586825
v -0.031829 0.010257 0.657385
v -0.100638 -0.028011 0.651642
v -0.031705 -0.024376 0.654836
v -0.029808 -0.022639 0.615641
v -0.032305 -0.076444 0.667227
v -0.101214 -0.067580 0.663541
v -0.032249 -0.047270 0.666078
v -0.101159 -0.038406 0.662392
v -0.030268 -0.052209 0.625158
v -0.102830 0.004935 0.159549
v -0.094381 0.242147 0.230191
v -0.095027 -0.094479 0.178282
v -0.058487 -0.253697 0.015404
v -0.047773 -0.244771 -0.043001
v -0.064556 -0.117967 -0.015069
v -0.065714 -0.155459 0.031995
v -0.094562 -0.239281 -0.080286
v -0.092896 -0.243797 -0.027399
v -0.102350 -0.132873 0.004267
v -0.101871 -0.056156 -0.088639
v -0.135506 -0.057509 -0.086128
v -0.127516 -0.240776 -0.077428
v -0.144980 -0.030753 -0.172358
v -0.135331 -0.243977 -0.168137
v -0.111739 -0.029283 -0.175173
v -0.102464 -0.242469 -0.171022
v -0.152942 -0.032788 -0.258430
v -0.141956 -0.220260 -0.231222
v -0.120075 -0.031281 -0.261315
v -0.109089 -0.218752 -0.234107
v 0.008199 0.552141 -0.179159
v -0.063327 0.213429 -0.846187
v -0.009617 0.480174 -0.567991
v -0.017192 0.510657 0.093768
v -0.050113 0.578566 -1.004461
v 0.015618 0.636892 -0.527312
v -0.000762 0.637106 -0.525961
v -0.051294 0.311690 -0.924617
v 0.027914 0.629093 -0.258455
v 0.011504 0.629224 -0.257934
v -0.067555 0.311999 -0.922243
v -0.016757 0.547120 -0.642824
v -0.012518 0.611025 -0.754695
v -0.028871 0.611287 -0.752862
v -0.048314 0.437031 -0.969452
v -0.064647 0.437320 -0.967349
v -0.043837 0.552971 -0.841401
v -0.076190 0.510650 -1.187075
v -0.073639 0.559290 -1.175600
v -0.061827 0.482206 -1.073005
v -0.078182 0.482497 -1.070875
v -0.066480 0.578855 -1.002361
v -0.092535 0.510941 -1.184945
v -0.089991 0.559581 -1.173474
v -0.094047 0.492439 -1.321283
v -0.110394 0.492731 -1.319152
v -0.028990 -0.358802 -0.533022
v -0.071371 -0.235024 -0.831412
v 0.014273 -0.403396 -0.130390
v -0.075652 -0.555070 -0.929870
v -0.002575 -0.517092 -0.465171
v -0.020645 -0.516740 -0.462517
v -0.054060 -0.344084 -0.817083
v -0.072119 -0.343720 -0.814307
v -0.041374 -0.425544 -0.603574
v -0.031350 -0.554049 -0.641811
v -0.049409 -0.553685 -0.639034
v -0.065283 -0.442480 -0.877187
v -0.083343 -0.442116 -0.874410
v -0.062144 -0.490325 -0.730189
v -0.100625 -0.481096 -1.102021
v -0.100658 -0.522140 -1.096854
v -0.082470 -0.469170 -0.985484
v -0.100529 -0.468806 -0.982708
v -0.093712 -0.554706 -0.927094
v -0.118684 -0.480732 -1.099245
v -0.118717 -0.521776 -1.094077
v -0.120118 -0.452742 -1.232546
v -0.138177 -0.452378 -1.229770
v -0.040599 -0.364139 0.038895
v 0.012317 -0.388271 0.035499
v 0.011906 -0.430011 -0.000626
v 0.010874 -0.496288 0.037317
v 0.013210 -0.459397 -0.105331
v -0.010543 -0.496288 0.037318
v -0.009681 -0.431101 0.004195
v -0.013916 -0.561922 -0.051440
v -0.012829 -0.462625 -0.101620
v -0.016069 -0.520642 -0.145167
v 0.013620 -0.517426 -0.148825
v 0.013990 -0.580469 -0.189893
v -0.015632 -0.580573 -0.190063
v -0.023978 -0.372080 0.106126
v -0.005689 -0.385473 0.037644
vn 0.0166 0.9652 -0.2611
vn 0.7220 -0.1901 -0.6652
vn -0.0289 -0.9140 -0.4047
vn 0.3238 -0.8026 -0.5009
vn 0.4143 0.7006 -0.5809
vn 0.6894 0.2459 -0.6814
vn 0.3087 -0.6998 0.6441
vn 0.2311 0.6546 0.7198
vn 0.9874 0.0734 0.1403
vn 0.9864 -0.1043 0.1274
vn 0.9882 0.1047 0.1118
vn 0.9809 0.0735 0.1800
vn 0.1555 0.4758 0.8657
vn 0.1556 0.7678 0.6215
vn -0.0542 -0.0735 0.9958
vn -0.2481 -0.9296 0.2726
vn 0.2234 -0.8629 0.4534
vn -0.0483 0.0394 0.9981
vn 0.9832 -0.0793 0.1647
vn -0.0570 0.9740 -0.2192
vn 0.0734 0.3045 0.9497
vn 0.9988 0.0000 0.0484
vn 0.9760 -0.0960 0.1956
vn 0.9930 0.0749 0.0917
vn 0.9933 -0.1037 0.0515
vn 0.9951 -0.0878 0.0445
vn 0.9975 0.0493 0.0504
vn 0.0087 0.9652 -0.2614
vn -0.6544 -0.1901 -0.7319
vn 0.0679 -0.9140 -0.4000
vn -0.2739 -0.8026 -0.5299
vn -0.3563 0.7006 -0.6182
vn -0.6203 0.2459 -0.7448
vn -0.3695 -0.6998 0.6113
vn -0.2996 0.6546 0.6941
vn -0.9963 0.0734 0.0443
vn -0.9940 -0.1043 0.0315
vn -0.9944 0.1047 0.0158
vn -0.9937 0.0735 0.0844
vn -0.2384 0.4758 0.8466
vn -0.2149 0.7678 0.6035
vn -0.0423 -0.0735 0.9964
vn 0.2206 -0.9296 0.2953
vn -0.2661 -0.8629 0.4297
vn -0.9945 -0.0793 0.0689
vn 0.0779 0.9740 -0.2127
vn -0.1648 0.3045 0.9382
vn -0.9988 -0.0000 -0.0484
vn -0.9903 -0.0961 0.1004
vn -0.9972 0.0749 -0.0047
vn -0.9936 -0.1038 -0.0447
vn -0.9948 -0.0878 -0.0518
vn -0.9977 0.0493 -0.0462
vn -0.1187 0.5274 -0.8413
vn 0.9921 0.0439 -0.1174
vn -0.0138 -0.9910 0.1332
vn 0.1072 0.5701 -0.8146
vn -0.0571 0.1612 -0.9853
vn -0.0230 -0.8041 0.5941
vn 0.1419 -0.9833 -0.1143
vn -0.0552 0.7822 0.6206
vn -0.0685 0.7694 0.6351
vn -0.0115 0.9542 0.2990
vn -0.8111 0.0580 -0.5821
vn 0.6723 -0.2066 0.7108
vn 0.0426 -0.9960 -0.0789
vn 0.8817 -0.0797 0.4650
vn 0.0198 -0.9353 -0.3532
vn -0.9859 0.0340 -0.1636
vn 0.9862 -0.0361 0.1616
vn -0.0432 -0.9987 0.0273
vn 0.1500 -0.1464 -0.9778
vn 0.9868 -0.0383 0.1575
vn 0.0409 0.9990 -0.0155
vn -0.9865 0.0375 -0.1593
vn 0.9893 -0.0553 -0.1353
vn 0.3103 0.8981 0.3115
vn 0.9996 -0.0197 0.0220
vn 0.9903 -0.0546 -0.1275
vn 0.9914 -0.0307 -0.1269
vn 0.0121 0.9995 0.0282
vn 0.9975 0.0458 -0.0542
vn -0.0670 -0.9177 -0.3915
vn 0.9897 -0.0221 -0.1412
vn -0.1331 -0.3302 -0.9345
vn 0.0034 0.9935 -0.1134
vn 0.9927 -0.1086 -0.0522
vn 0.0031 0.9937 -0.1123
vn -0.0001 -0.9909 0.1345
vn 0.9909 -0.0243 -0.1323
vn 0.9889 -0.0340 -0.1444
vn 0.0012 0.9916 -0.1290
vn -0.0481 -0.9706 -0.2360
vn 0.9914 -0.0214 -0.1290
vn -0.0375 0.9102 -0.4124
vn 0.9923 -0.0460 -0.1149
vn 0.9880 -0.0260 -0.1522
vn 0.9882 -0.0199 -0.1519
vn 0.9877 -0.0191 -0.1549
vn 0.9917 -0.0625 -0.1123
vn -0.0168 0.9714 -0.2367
vn 0.0111 -0.9791 0.2030
vn 0.2863 -0.9198 0.2682
vn -0.0484 -0.9813 -0.1863
vn 0.0512 0.9775 0.2047
vn -0.0192 -0.9998 0.0065
vn 0.0043 0.9947 -0.1025
vn -0.0862 -0.8920 -0.4438
vn 0.9837 -0.0338 -0.1767
vn 0.1432 -0.4203 -0.8960
vn 0.9986 0.0142 0.0516
vn 0.9949 0.0307 0.0963
vn 0.0287 -0.4961 0.8678
vn 0.1989 0.5924 -0.7807
vn 0.1498 0.9510 -0.2704
vn 0.9977 0.0216 0.0643
vn 0.9987 -0.0254 0.0437
vn 0.1394 0.6198 -0.7723
vn -0.9920 -0.0420 0.1186
vn 0.0032 -0.9911 0.1334
vn -0.0800 0.5707 -0.8172
vn -0.3325 0.1623 -0.9290
vn 0.0005 -0.8041 0.5945
vn -0.0781 -0.9833 -0.1646
vn 0.0104 0.7820 0.6232
vn 0.0193 0.7709 0.6367
vn -0.0165 0.9544 0.2981
vn 0.8208 0.0993 -0.5624
vn -0.7354 -0.2075 0.6451
vn -0.0134 -0.9963 -0.0847
vn -0.9151 -0.0850 0.3942
vn 0.0119 -0.9356 -0.3530
vn 0.9948 0.0386 -0.0946
vn -0.9949 -0.0413 0.0917
vn 0.0482 -0.9984 0.0310
vn -0.0798 -0.1477 -0.9858
vn -0.9949 -0.0441 0.0909
vn -0.0466 0.9987 -0.0190
vn 0.9947 0.0430 -0.0935
vn -0.9892 0.0555 0.1354
vn -0.3013 0.9148 0.2690
vn -0.9995 0.0199 -0.0224
vn -0.9903 0.0546 0.1277
vn -0.9914 0.0309 0.1271
vn 0.0122 0.9995 0.0286
vn -0.9975 -0.0458 0.0542
vn -0.0670 -0.9177 -0.3916
vn -0.9897 0.0221 0.1413
vn -0.1344 -0.3319 -0.9337
vn 0.0034 0.9935 -0.1135
vn -0.9927 0.1086 0.0523
vn -0.9909 0.0244 0.1323
vn -0.9889 0.0342 0.1446
vn 0.0012 0.9916 -0.1291
vn -0.0480 -0.9706 -0.2360
vn -0.9914 0.0214 0.1290
vn -0.9898 0.0581 0.1303
vn -0.9879 0.0274 0.1529
vn -0.9882 0.0199 0.1519
vn -0.9877 0.0190 0.1550
vn -0.9915 0.0639 0.1136
vn 0.0111 -0.9791 0.2031
vn -0.2482 -0.9134 0.3227
vn -0.9832 0.0350 0.1794
vn -0.4533 -0.3999 -0.7966
vn -0.9995 0.0230 0.0220
vn -0.9856 0.0436 -0.1635
vn -0.0804 -0.5002 0.8622
vn -0.1726 0.5937 -0.7859
vn -0.1355 0.9521 -0.2743
vn -0.9989 0.0290 0.0357
vn -0.9997 -0.0184 0.0149
vn -0.1095 0.6226 -0.7749
vn 0.9948 -0.0672 0.0761
vn 0.2948 0.9371 -0.1869
vn 0.9930 0.0521 0.1056
vn 0.9991 0.0211 -0.0379
vn 0.2810 0.9450 0.1674
vn 0.9968 -0.0391 -0.0691
vn 0.9306 0.1156 -0.3472
vn 0.2067 0.6852 -0.6984
vn 0.9675 0.0299 -0.2511
vn 0.9716 -0.0723 -0.2254
vn 0.2812 0.7991 0.5314
vn 0.9972 0.0298 0.0680
vn 0.9766 0.0731 0.2022
vn 0.9302 -0.1041 -0.3521
vn -0.1757 -0.2864 -0.9419
vn -0.3119 0.0884 -0.9460
vn 0.8568 -0.0780 -0.5098
vn 0.8396 0.0685 -0.5389
vn 0.6757 -0.7195 -0.1602
vn 0.7139 0.6704 -0.2023
vn 0.8592 0.1404 -0.4921
vn 0.8962 -0.1019 -0.4318
vn 0.8519 -0.0558 -0.5207
vn 0.1019 -0.6808 -0.7253
vn -0.2078 0.4453 -0.8709
vn 0.8454 0.0520 -0.5316
vn 0.9950 -0.0705 0.0711
vn 0.9968 0.0395 0.0695
vn 0.9971 -0.0658 0.0380
vn 0.3452 -0.8448 -0.4089
vn 0.3329 -0.9329 -0.1374
vn 0.7495 0.5844 -0.3109
vn 0.2716 0.6752 -0.6858
vn 0.8280 -0.5576 0.0599
vn 0.1965 -0.5192 -0.8317
vn 0.4153 -0.8940 0.1680
vn 0.9941 -0.0147 0.1074
vn 0.5492 -0.8032 0.2306
vn 0.3678 -0.8467 0.3846
vn -0.9974 -0.0683 -0.0211
vn -0.2792 0.9460 -0.1646
vn -0.9964 0.0823 -0.0202
vn -0.9959 0.0845 0.0307
vn -0.2845 0.9508 0.1225
vn -0.9951 -0.0785 0.0605
vn -0.9854 0.1546 -0.0707
vn -0.3439 0.7068 -0.6182
vn -0.9942 0.0896 0.0597
vn -0.9967 -0.0360 0.0731
vn -0.3328 0.8030 0.4943
vn -0.9961 0.0688 -0.0550
vn -0.9614 -0.1967 -0.1926
vn -0.9952 -0.0708 -0.0675
vn -0.7893 -0.2786 -0.5471
vn -0.7246 0.0972 -0.6823
vn -0.8200 -0.0671 0.5684
vn -0.8392 0.1042 0.5338
vn -0.4762 -0.6608 0.5801
vn -0.4501 0.6854 0.5724
vn -0.8248 0.2350 0.5143
vn -0.8139 -0.1093 0.5707
vn -0.7853 -0.1084 0.6095
vn -0.6967 -0.6977 -0.1668
vn -0.6769 0.4732 -0.5637
vn -0.7926 0.1739 0.5844
vn -0.9970 -0.0713 -0.0288
vn -0.9961 0.0593 -0.0660
vn -0.9962 -0.0667 -0.0557
vn -0.4844 -0.8273 -0.2845
vn -0.3728 -0.9256 -0.0649
vn -0.6498 0.6008 0.4656
vn -0.4169 0.6842 -0.5984
vn -0.5492 -0.4752 0.6874
vn -0.4633 -0.5012 -0.7308
vn -0.4070 -0.9106 0.0711
vn -0.9883 -0.1125 -0.1028
vn -0.5122 -0.8585 0.0252
vn -0.3818 -0.8570 0.3460
usemtl Front
s off
f 2//1 106//1 150//1 32//1
f 28//2 26//2 42//2 44//2
f 107//3 1//3 31//3 148//3
f 1//4 28//4 44//4 31//4
f 27//5 2//5 32//5 43//5
f 26//6 27//6 43//6 42//6
f 148//7 31//7 37//7 156//7
f 32//8 150//8 151//8 33//8
f 30//9 32//9 33//9 34//9
f 31//10 30//10 34//10 37//10
f 36//11 34//11 38//11
f 34//12 33//12 38//12
f 151//13 159//13 38//13 33//13
f 159//14 160//14 36//14 38//14
f 160//15 162//15 39//15 36//15
f 162//16 163//16 35//16 39//16
f 37//17 40//17 164//17 156//17
f 40//18 41//18 166//18 164//18
f 35//19 34//19 36//19 39//19
f 41//20 35//20 168//20 166//20
f 35//21 163//21 168//21
f 40//22 37//22 35//22 41//22
f 35//23 37//23 34//23
f 32//24 30//24 43//24
f 30//25 31//25 44//25
f 42//26 30//26 44//26
f 30//27 42//27 43//27
f 103//28 149//28 150//28 106//28
f 143//29 171//29 169//29 141//29
f 107//30 148//30 147//30 102//30
f 102//31 147//31 171//31 143//31
f 142//32 170//32 149//32 103//32
f 141//33 169//33 170//33 142//33
f 148//34 156//34 157//34 147//34
f 149//35 152//35 151//35 150//35
f 146//36 153//36 152//36 149//36
f 147//37 157//37 153//37 146//37
f 155//38 158//38 153//38
f 153//39 158//39 152//39
f 151//40 152//40 158//40 159//40
f 159//41 158//41 155//41 160//41
f 160//42 155//42 161//42 162//42
f 162//43 161//43 154//43 163//43
f 157//44 156//44 164//44 165//44
f 165//18 164//18 166//18 167//18
f 154//45 161//45 155//45 153//45
f 167//46 166//46 168//46 154//46
f 154//47 168//47 163//47
f 165//48 167//48 154//48 157//48
f 154//49 153//49 157//49
f 149//50 170//50 146//50
f 146//51 171//51 147//51
f 169//52 171//52 146//52
f 146//53 170//53 169//53
usemtl Fins
f 86//54 227//54 222//54 83//54
f 82//55 84//55 81//55
f 96//56 144//56 250//56 99//56
f 250//57 249//57 98//57 99//57
f 197//58 69//58 15//58 121//58
f 94//59 242//59 144//59 96//59
f 45//60 46//60 50//60
f 47//61 48//61 51//61
f 47//62 51//62 53//62 52//62
f 52//63 53//63 55//63 57//63
f 46//64 47//64 52//64 49//64
f 50//65 51//65 48//65 45//65
f 50//66 46//66 49//66 54//66
f 51//67 50//67 54//67 53//67
f 56//68 58//68 62//68 60//68
f 49//69 52//69 57//69 58//69
f 53//70 54//70 56//70 55//70
f 54//71 49//71 58//71 56//71
f 62//72 61//72 59//72 60//72
f 55//73 56//73 60//73 59//73
f 57//74 55//74 59//74 61//74
f 58//75 57//75 61//75 62//75
f 65//76 64//76 69//76 70//76
f 117//77 66//77 68//77 198//77
f 66//78 63//78 67//78 68//78
f 70//79 69//79 72//79 73//79
f 67//80 70//80 73//80 71//80
f 68//81 67//81 195//81 198//81
f 63//82 65//82 70//82
f 72//83 204//83 209//83 74//83
f 73//84 72//84 74//84 75//84
f 69//85 197//85 204//85 72//85
f 195//86 67//86 71//86 202//86
f 67//87 63//87 70//87
f 194//88 75//88 77//88 208//88
f 76//89 207//89 214//89 78//89
f 75//90 74//90 76//90 77//90
f 71//91 73//91 75//91
f 202//92 71//92 75//92 194//92
f 74//93 209//93 207//93 76//93
f 77//94 76//94 78//94
f 208//95 77//95 78//95 214//95
f 64//96 15//96 69//96
f 79//97 84//97 83//97 80//97
f 84//98 87//98 86//98 83//98
f 82//99 85//99 87//99 84//99
f 81//100 84//100 79//100
f 86//101 88//101 232//101 227//101
f 87//98 89//98 88//98 86//98
f 220//102 225//102 85//102 82//102
f 82//103 81//103 111//103 220//103
f 219//104 231//104 91//104 89//104
f 90//105 92//105 237//105 230//105
f 89//98 91//98 90//98 88//98
f 85//98 89//98 87//98
f 225//106 219//106 89//106 85//106
f 88//107 90//107 230//107 232//107
f 91//98 92//98 90//98
f 231//108 237//108 92//108 91//108
f 80//109 83//109 17//109
f 222//110 125//110 17//110 83//110
f 95//111 94//111 96//111 97//111
f 101//112 100//112 94//112 95//112
f 94//113 100//113 118//113 242//113
f 243//114 97//114 98//114 249//114
f 241//115 95//115 97//115 243//115
f 97//116 96//116 98//116
f 96//117 99//117 98//117
f 240//118 101//118 95//118 241//118
f 228//54 223//54 222//54 227//54
f 221//119 218//119 224//119
f 246//120 251//120 250//120 144//120
f 250//121 251//121 248//121 249//121
f 197//122 121//122 122//122 200//122
f 244//123 246//123 144//123 242//123
f 172//124 177//124 173//124
f 174//125 178//125 175//125
f 174//126 179//126 180//126 178//126
f 179//127 184//127 182//127 180//127
f 173//128 176//128 179//128 174//128
f 177//129 172//129 175//129 178//129
f 177//130 181//130 176//130 173//130
f 178//131 180//131 181//131 177//131
f 183//132 187//132 189//132 185//132
f 176//133 185//133 184//133 179//133
f 180//134 182//134 183//134 181//134
f 181//135 183//135 185//135 176//135
f 189//136 187//136 186//136 188//136
f 182//137 186//137 187//137 183//137
f 184//138 188//138 186//138 182//138
f 185//139 189//139 188//139 184//139
f 192//140 201//140 200//140 191//140
f 117//141 198//141 199//141 193//141
f 193//142 199//142 196//142 190//142
f 201//143 206//143 205//143 200//143
f 196//144 203//144 206//144 201//144
f 199//145 198//145 195//145 196//145
f 190//146 201//146 192//146
f 205//147 210//147 209//147 204//147
f 206//148 211//148 210//148 205//148
f 200//149 205//149 204//149 197//149
f 195//150 202//150 203//150 196//150
f 196//151 201//151 190//151
f 194//88 208//88 213//88 211//88
f 212//89 215//89 214//89 207//89
f 211//152 213//152 212//152 210//152
f 203//153 211//153 206//153
f 202//154 194//154 211//154 203//154
f 210//155 212//155 207//155 209//155
f 213//156 215//156 212//156
f 208//95 214//95 215//95 213//95
f 191//157 200//157 122//157
f 216//158 217//158 223//158 224//158
f 224//159 223//159 228//159 229//159
f 221//160 224//160 229//160 226//160
f 218//161 216//161 224//161
f 228//101 227//101 232//101 233//101
f 229//159 228//159 233//159 234//159
f 220//162 221//162 226//162 225//162
f 221//163 220//163 111//163 218//163
f 219//104 234//104 236//104 231//104
f 235//105 230//105 237//105 238//105
f 234//159 233//159 235//159 236//159
f 226//159 229//159 234//159
f 225//106 226//106 234//106 219//106
f 233//107 232//107 230//107 235//107
f 236//159 235//159 238//159
f 231//108 236//108 238//108 237//108
f 217//164 124//164 223//164
f 222//165 223//165 124//165 125//165
f 245//166 247//166 246//166 244//166
f 253//167 245//167 244//167 252//167
f 244//168 242//168 118//168 252//168
f 243//169 249//169 248//169 247//169
f 241//170 243//170 247//170 245//170
f 247//171 248//171 246//171
f 246//172 248//172 251//172
f 240//173 241//173 245//173 253//173
usemtl Body
f 29//174 28//174 1//174
f 6//175 4//175 65//175 63//175
f 12//176 2//176 27//176
f 4//177 6//177 8//177 5//177
f 12//178 6//178 63//178 66//178
f 5//179 8//179 7//179 3//179
f 9//180 10//180 16//180 15//180
f 65//181 4//181 9//181 64//181
f 4//182 5//182 10//182 9//182
f 5//183 3//183 11//183 10//183
f 2//184 12//184 66//184 117//184 106//184
f 6//185 12//185 14//185 8//185
f 93//186 45//186 13//186
f 10//187 11//187 17//187 16//187
f 131//188 19//188 24//188 138//188
f 139//189 25//189 19//189 131//189
f 19//190 22//190 24//190
f 22//191 19//191 25//191
f 21//192 133//192 130//192 20//192
f 132//193 23//193 18//193 126//193
f 15//194 16//194 22//194 23//194
f 16//195 17//195 21//195 22//195
f 22//196 21//196 20//196 24//196
f 138//197 24//197 20//197 130//197
f 126//198 18//198 25//198 139//198
f 23//199 22//199 25//199 18//199
f 14//200 26//200 28//200 29//200 13//200
f 14//201 12//201 27//201 26//201
f 14//202 13//202 45//202 48//202 47//202
f 3//203 79//203 80//203 11//203
f 81//204 79//204 3//204 7//204
f 121//205 15//205 23//205 132//205
f 64//206 9//206 15//206
f 17//207 125//207 133//207 21//207
f 11//208 80//208 17//208
f 240//209 111//209 81//209 7//209 93//209 101//209
f 8//210 14//210 47//210 46//210 45//210 93//210 7//210
f 13//211 100//211 101//211 93//211
f 107//212 118//212 100//212 13//212 29//212 1//212
f 145//213 102//213 143//213
f 109//214 190//214 192//214 105//214
f 116//215 142//215 103//215
f 105//216 108//216 112//216 109//216
f 116//217 193//217 190//217 109//217
f 108//218 104//218 110//218 112//218
f 113//219 122//219 123//219 114//219
f 192//220 191//220 113//220 105//220
f 105//221 113//221 114//221 108//221
f 108//222 114//222 115//222 104//222
f 103//223 106//223 117//223 193//223 116//223
f 109//224 112//224 120//224 116//224
f 239//225 119//225 172//225
f 114//226 123//226 124//226 115//226
f 131//227 138//227 137//227 128//227
f 139//228 131//228 128//228 140//228
f 128//229 137//229 135//229
f 135//230 140//230 128//230
f 134//231 129//231 130//231 133//231
f 132//232 126//232 127//232 136//232
f 122//233 136//233 135//233 123//233
f 123//234 135//234 134//234 124//234
f 135//235 137//235 129//235 134//235
f 138//236 130//236 129//236 137//236
f 126//237 139//237 140//237 127//237
f 136//238 127//238 140//238 135//238
f 120//239 119//239 145//239 143//239 141//239
f 120//240 141//240 142//240 116//240
f 120//241 174//241 175//241 172//241 119//241
f 104//242 115//242 217//242 216//242
f 218//243 110//243 104//243 216//243
f 121//244 132//244 136//244 122//244
f 191//245 122//245 113//245
f 124//246 134//246 133//246 125//246
f 115//247 124//247 217//247
f 240//248 253//248 239//248 110//248 218//248 111//248
f 112//249 110//249 239//249 172//249 173//249 174//249 120//249
f 119//250 239//250 253//250 252//250
f 107//251 102//251 145//251 119//251 252//251 118//251
